# This file uses centimeters as units for non-parametric coordinates.

mtllib SorsererMask.mtl
g default
v 0.000000 4.176489 0.150045
v 0.126421 4.222574 0.150773
v -0.126421 4.222574 0.150772
v 0.000000 4.185955 0.241330
v 0.138763 4.220820 0.188243
v -0.138763 4.220820 0.188243
v -0.318807 4.802824 0.169784
v 0.000000 4.801184 0.314763
v 0.318807 4.802824 0.169785
v 0.318088 4.683826 0.126411
v 0.000000 4.683826 0.280954
v -0.318088 4.683826 0.126411
v -0.329376 4.615994 0.126411
v 0.000000 4.593876 0.289160
v 0.329376 4.615994 0.126411
v 0.275093 4.905684 0.156690
v 0.000000 4.905684 0.272936
v -0.275092 4.905684 0.156690
v 0.221790 4.882155 0.068784
v 0.000000 4.878039 0.183047
v -0.221788 4.882155 0.068784
v 0.262035 4.817794 0.090934
v -0.262034 4.817794 0.090934
v -0.270185 4.606335 0.042924
v -0.261411 4.693110 0.049220
v 0.270185 4.606334 0.042925
v 0.261411 4.693109 0.049220
v -0.209156 4.372085 0.093138
v -0.270148 4.390801 0.154034
v 0.000000 4.397573 0.267792
v 0.270148 4.390801 0.154034
v 0.209156 4.372085 0.093139
v -0.036445 4.183944 0.152902
v -0.035030 4.189072 0.221633
v -0.047515 4.396733 0.242330
v -0.053143 4.595782 0.259043
v -0.052070 4.683630 0.251617
v -0.052138 4.801144 0.286335
v -0.044844 4.905487 0.247748
v -0.039779 4.878234 0.158047
v 0.036445 4.183944 0.152902
v 0.035030 4.189072 0.221633
v 0.047514 4.396733 0.242330
v 0.053142 4.595782 0.259043
v 0.052070 4.683630 0.251617
v 0.052138 4.801144 0.286335
v 0.044844 4.905488 0.247748
v 0.039779 4.878234 0.158047
v -0.157093 4.631857 0.195318
v -0.076853 4.606679 0.240881
v -0.103516 4.649467 0.232342
v -0.202758 4.665689 0.183105
v -0.137398 4.691703 0.230061
v -0.237839 4.717600 0.189004
v 0.076853 4.606679 0.240881
v 0.103516 4.649467 0.232342
v 0.157093 4.631857 0.195318
v 0.202758 4.665689 0.183105
v 0.137398 4.691703 0.230062
v 0.237839 4.717600 0.189005
v -0.144249 4.632683 0.167492
v -0.064009 4.607506 0.213056
v -0.091054 4.653351 0.204786
v -0.190295 4.669573 0.155549
v -0.125317 4.698643 0.202775
v -0.225758 4.724541 0.161718
v 0.064009 4.607505 0.213056
v 0.091054 4.653351 0.204786
v 0.144249 4.632683 0.167492
v 0.190295 4.669572 0.155549
v 0.125318 4.698643 0.202775
v 0.225758 4.724541 0.161718
v -0.080223 5.248841 0.046085
v -0.129455 5.254020 0.016240
v -0.075158 5.221588 -0.004430
v -0.089814 5.221370 -0.014429
v 0.080222 5.248841 0.046085
v 0.075157 5.221587 -0.004430
v 0.129455 5.254020 0.016240
v 0.089815 5.221370 -0.014428
v -0.061856 4.939085 0.223394
v -0.225933 4.939238 0.152065
v -0.096749 5.208045 0.055284
v -0.128135 5.212102 0.042046
v 0.225934 4.939238 0.152065
v 0.061857 4.939085 0.223394
v 0.128135 5.212102 0.042047
v 0.096748 5.208045 0.055285
v -0.047520 4.925710 0.198019
v -0.211597 4.925864 0.126690
v -0.082413 5.194670 0.029909
v -0.113799 5.198727 0.016671
v 0.211598 4.925864 0.126690
v 0.047521 4.925710 0.198019
v 0.113799 5.198727 0.016672
v 0.082413 5.194671 0.029910
v -0.042817 4.948649 0.238580
v -0.037752 4.921396 0.150661
v -0.207933 4.930334 0.065001
v -0.260615 4.954278 0.150305
v -0.221487 4.951642 0.147064
v -0.207151 4.938268 0.121689
v -0.049107 4.937937 0.190377
v -0.063443 4.951311 0.215752
v 0.042818 4.948649 0.238580
v 0.037753 4.921395 0.150661
v 0.207934 4.930334 0.065001
v 0.260616 4.954278 0.150305
v 0.221488 4.951642 0.147064
v 0.207152 4.938268 0.121689
v 0.049107 4.937937 0.190377
v 0.063443 4.951311 0.215752
vt 0.328707 0.592144
vt 0.312016 0.599543
vt 0.885760 0.376347
vt 0.883543 0.395922
vt 0.330629 0.615448
vt 0.310247 0.637725
vt 0.921006 0.365395
vt 0.905683 0.390314
vt 0.375308 0.683976
vt 0.385054 0.649804
vt 0.406300 0.650830
vt 0.405684 0.688495
vt 0.952795 0.430792
vt 0.981651 0.413026
vt 0.993999 0.439767
vt 0.959622 0.450114
vt 0.966803 0.211814
vt 0.470784 0.213918
vt 0.961111 0.393031
vt 0.968561 0.403976
vt 0.349435 0.669411
vt 0.186153 0.316397
vt 0.689412 0.319723
vt 0.362526 0.673561
vt 0.000000 0.000000
vt 1.000000 0.000000
vt 1.000000 1.000000
vt 0.000000 1.000000
vt 0.000000 0.000000
vt 1.000000 0.000000
vt 1.000000 1.000000
vt 0.000000 1.000000
vt 0.000000 0.000000
vt 1.000000 0.000000
vt 1.000000 1.000000
vt 0.000000 1.000000
vt 0.000000 0.000000
vt 1.000000 0.000000
vt 1.000000 1.000000
vt 0.000000 1.000000
vt 0.000000 0.000000
vt 1.000000 1.000000
vt 0.000000 1.000000
vt 1.000000 0.000000
vt 1.000000 1.000000
vt 0.000000 1.000000
vt 1.000000 1.000000
vt 0.000000 1.000000
vt 0.000000 0.000000
vt 0.000000 1.000000
vt 1.000000 0.000000
vt 1.000000 1.000000
vt 0.553254 1.000000
vt 0.553254 0.000000
vt 0.921132 0.408745
vt 0.943194 0.380685
vt 0.331928 0.655255
vt 0.353687 0.625045
vt 0.446746 0.000000
vt 0.446746 1.000000
vt 0.885549 0.378207
vt 0.919550 0.367763
vt 0.941098 0.383351
vt 0.961652 0.375811
vt 0.921261 0.385916
vt 0.978909 0.414714
vt 0.990732 0.440750
vt 0.904978 0.000000
vt 0.904978 1.000000
vt 0.313602 0.598840
vt 0.312184 0.635608
vt 0.333995 0.652385
vt 0.333920 0.635867
vt 0.393587 0.639939
vt 0.376234 0.680729
vt 0.405743 0.684916
vt 0.095022 0.000000
vt 0.095022 1.000000
vt 0.966803 0.211814
vt 0.961652 0.375811
vt 0.921261 0.385916
vt 0.470784 0.213918
vt 0.978909 0.414714
vt 0.952795 0.430792
vt 0.393587 0.639939
vt 0.333920 0.635867
vt 0.186153 0.316397
vt 0.689412 0.319723
vt 0.376234 0.680729
vt 0.385054 0.649804
vt 0.966803 0.211814
vt 0.961652 0.375811
vt 0.921261 0.385916
vt 0.470784 0.213918
vt 0.978909 0.414714
vt 0.952795 0.430792
vt 0.393587 0.639939
vt 0.333920 0.635867
vt 0.186153 0.316397
vt 0.689412 0.319723
vt 0.376234 0.680729
vt 0.385054 0.649804
vt 0.000000 0.000000
vt 0.904978 0.000000
vt 0.904978 1.000000
vt 0.000000 1.000000
vt 0.095022 1.000000
vt 0.095022 0.000000
vt 1.000000 0.000000
vt 1.000000 1.000000
vt 0.000000 0.000000
vt 0.904978 0.000000
vt 0.904978 0.000000
vt 0.000000 0.000000
vt 0.095022 0.000000
vt 1.000000 0.000000
vt 1.000000 0.000000
vt 0.095022 0.000000
vt 0.000000 0.000000
vt 0.904978 0.000000
vt 0.904978 0.000000
vt 0.000000 0.000000
vt 0.095022 0.000000
vt 1.000000 0.000000
vt 1.000000 0.000000
vt 0.095022 0.000000
vt 0.904978 0.000000
vt 0.904978 1.000000
vt 0.000000 1.000000
vt 0.000000 0.000000
vt 0.000000 0.000000
vt 0.000000 0.000000
vt 0.904978 0.000000
vt 0.904978 0.000000
vt 0.095022 0.000000
vt 0.095022 1.000000
vt 1.000000 1.000000
vt 1.000000 0.000000
vt 1.000000 0.000000
vt 1.000000 0.000000
vt 0.095022 0.000000
vt 0.095022 0.000000
vn -0.000000 -0.995731 0.092304
vn 0.279846 -0.959597 0.029308
vn 0.418837 -0.309188 0.853802
vn -0.000001 -0.307922 0.951411
vn -0.340637 -0.940181 -0.005169
vn -0.279846 -0.959597 0.029311
vn -0.418837 -0.309187 0.853803
vn -0.383605 -0.209681 0.899378
vn -0.000001 0.016429 0.999865
vn 0.408475 0.112762 0.905777
vn 0.375795 0.337171 0.863188
vn 0.000002 0.374897 0.927067
vn -0.365643 0.309002 0.877965
vn -0.408478 0.112763 0.905776
vn -0.375798 0.337173 0.863186
vn -0.357505 0.332959 0.872542
vn -0.495701 -0.233563 0.836498
vn -0.495701 -0.233563 0.836498
vn -0.477247 -0.277300 0.833871
vn -0.455495 -0.325122 0.828746
vn -0.000001 -0.043466 0.999055
vn 0.424174 -0.029061 0.905114
vn 0.385695 -0.158303 0.908944
vn -0.000001 -0.131475 0.991320
vn -0.446172 -0.344544 0.825966
vn -0.446172 -0.344544 0.825966
vn -0.406196 -0.068159 0.911240
vn -0.424175 -0.029061 0.905114
vn -0.404872 -0.031277 0.913838
vn -0.393014 -0.054444 0.917919
vn 0.406196 -0.068159 0.911241
vn -0.000000 -0.114237 0.993454
vn -0.000001 0.957652 -0.287928
vn -0.168317 0.943988 -0.283823
vn -0.168317 0.943988 -0.283823
vn -0.000001 0.957652 -0.287928
vn 0.335013 0.836832 -0.432989
vn 0.335013 0.836832 -0.432989
vn 0.335013 0.836832 -0.432989
vn 0.335013 0.836832 -0.432989
vn 0.802876 0.246069 -0.542992
vn 0.803376 0.225330 -0.551193
vn 0.801763 0.236174 -0.548998
vn 0.803337 0.244064 -0.543214
vn -0.803373 0.225334 -0.551195
vn -0.802872 0.246077 -0.542994
vn -0.803334 0.244073 -0.543215
vn -0.801760 0.236181 -0.548999
vn 0.807878 0.190312 -0.557776
vn 0.807878 0.190312 -0.557776
vn -0.807877 0.190310 -0.557779
vn -0.807877 0.190310 -0.557779
vn 0.752712 -0.375732 -0.540602
vn 0.745508 -0.416810 -0.520084
vn 0.761799 -0.296940 -0.575751
vn 0.761799 -0.296940 -0.575751
vn -0.761799 -0.296940 -0.575751
vn -0.745509 -0.416809 -0.520083
vn -0.752712 -0.375731 -0.540602
vn -0.761799 -0.296940 -0.575751
vn -0.694978 -0.585674 -0.417122
vn -0.694978 -0.585674 -0.417122
vn 0.694976 -0.585676 -0.417122
vn 0.694976 -0.585676 -0.417122
vn 0.804292 0.127995 -0.580286
vn 0.804292 0.127995 -0.580286
vn 0.804292 0.127995 -0.580286
vn 0.804292 0.127995 -0.580286
vn -0.804293 0.127995 -0.580284
vn -0.804293 0.127995 -0.580284
vn -0.804293 0.127995 -0.580284
vn -0.804293 0.127995 -0.580284
vn -0.385695 -0.158302 0.908944
vn 0.168316 0.943990 -0.283818
vn 0.168316 0.943990 -0.283818
vn 0.340638 -0.940180 -0.005175
vn 0.383606 -0.209681 0.899378
vn 0.393013 -0.054444 0.917920
vn 0.404870 -0.031277 0.913839
vn 0.477248 -0.277302 0.833869
vn 0.495706 -0.233567 0.836494
vn 0.495706 -0.233567 0.836494
vn 0.455492 -0.325122 0.828748
vn 0.446168 -0.344543 0.825969
vn 0.446168 -0.344543 0.825969
vn 0.365640 0.309001 0.877967
vn 0.357501 0.332958 0.872543
vn -0.335006 0.836825 -0.433007
vn -0.335006 0.836825 -0.433007
vn -0.335006 0.836825 -0.433007
vn -0.335006 0.836825 -0.433007
vn -0.397321 0.301594 0.866705
vn -0.383393 0.277826 0.880808
vn -0.328317 -0.156557 0.931503
vn -0.454707 -0.197077 0.868564
vn -0.435069 -0.129978 0.890966
vn -0.362101 -0.185830 0.913428
vn -0.426704 -0.212738 0.879015
vn -0.432434 -0.223534 0.873518
vn 0.397316 0.301585 0.866710
vn 0.328318 -0.156558 0.931503
vn 0.383388 0.277819 0.880812
vn 0.454706 -0.197079 0.868563
vn 0.435069 -0.129981 0.890966
vn 0.362100 -0.185832 0.913427
vn 0.426703 -0.212741 0.879014
vn 0.432433 -0.223537 0.873518
vn 0.226957 0.964724 0.133411
vn 0.226958 0.964724 0.133411
vn 0.226957 0.964724 0.133411
vn 0.226957 0.964724 0.133411
vn -0.753208 -0.530233 -0.389270
vn -0.729202 -0.549354 -0.408013
vn -0.726863 -0.551140 -0.409773
vn -0.753208 -0.530233 -0.389270
vn 0.671346 0.633690 0.384359
vn 0.528501 0.790803 0.308737
vn 0.528501 0.790803 0.308737
vn 0.670380 0.635018 0.383853
vn -0.703266 -0.568465 -0.426925
vn -0.703266 -0.568465 -0.426925
vn -0.123420 -0.947309 -0.295590
vn -0.123420 -0.947309 -0.295590
vn -0.123420 -0.947309 -0.295590
vn -0.123420 -0.947309 -0.295590
vn 0.772688 0.460692 0.436710
vn 0.772688 0.460692 0.436710
vn 0.729201 -0.549352 -0.408019
vn 0.753205 -0.530230 -0.389279
vn 0.753205 -0.530230 -0.389279
vn 0.726862 -0.551138 -0.409778
vn -0.226961 0.964723 0.133408
vn -0.226961 0.964723 0.133408
vn -0.226961 0.964723 0.133408
vn -0.226961 0.964723 0.133408
vn -0.528496 0.790806 0.308736
vn -0.671346 0.633688 0.384362
vn -0.670379 0.635017 0.383856
vn -0.528496 0.790806 0.308736
vn 0.703266 -0.568463 -0.426927
vn 0.703266 -0.568463 -0.426927
vn -0.772688 0.460687 0.436716
vn -0.772688 0.460687 0.436716
vn 0.123420 -0.947306 -0.295599
vn 0.123420 -0.947306 -0.295599
vn 0.123420 -0.947306 -0.295599
vn 0.123420 -0.947306 -0.295599
vn -0.344209 0.460084 0.818439
vn -0.344569 0.460056 0.818304
vn -0.343431 0.460144 0.818732
vn -0.343431 0.460144 0.818732
vn 0.993649 0.109290 0.026779
vn 0.993327 0.112384 0.025890
vn 0.990694 0.134710 0.019456
vn 0.990694 0.134710 0.019456
vn 0.418074 -0.328781 -0.846828
vn 0.416625 -0.339598 -0.843266
vn 0.410006 -0.384118 -0.827254
vn 0.410006 -0.384117 -0.827254
vn -0.769022 0.102274 -0.630987
vn -0.770440 0.104420 -0.628903
vn -0.758414 0.086562 -0.646000
vn -0.758414 0.086562 -0.646000
vn -0.997158 -0.033919 0.067278
vn -0.997158 -0.033919 0.067278
vn -0.993649 0.109287 0.026778
vn -0.993328 0.112380 0.025889
vn 0.353516 0.459336 0.814884
vn 0.353516 0.459336 0.814884
vn 0.344209 0.460084 0.818439
vn 0.344569 0.460056 0.818304
vn 0.769024 0.102278 -0.630984
vn 0.770441 0.104424 -0.628900
vn -0.431935 -0.183087 -0.883126
vn -0.431935 -0.183087 -0.883126
vn -0.418068 -0.328780 -0.846831
vn -0.416619 -0.339596 -0.843269
vn -0.370233 0.476412 0.797471
vn -0.282176 0.462888 0.840304
vn -0.626223 0.354995 0.694135
vn -0.631979 0.340628 0.696115
vn -0.526467 0.389430 0.755762
vn -0.596724 0.369200 0.712469
vn -0.204351 0.420443 0.884007
vn -0.102857 0.414773 0.904093
vn -0.043400 0.377069 0.925168
vn -0.047786 0.389352 0.919849
vn 0.282173 0.462883 0.840308
vn 0.370229 0.476406 0.797476
vn 0.043401 0.377068 0.925168
vn 0.047787 0.389351 0.919849
vn 0.204350 0.420440 0.884008
vn 0.526461 0.389429 0.755767
vn 0.596719 0.369200 0.712473
vn 0.102857 0.414771 0.904094
vn 0.626219 0.354996 0.694138
vn 0.631976 0.340630 0.696116
vn 0.167722 0.908032 -0.383859
vn 0.167722 0.908032 -0.383859
vn 0.167722 0.908032 -0.383859
vn 0.167722 0.908032 -0.383859
vn -0.886853 -0.322107 -0.331267
vn -0.886853 -0.322107 -0.331267
vn -0.886853 -0.322107 -0.331267
vn -0.886853 -0.322107 -0.331267
vn -0.257569 -0.907192 0.332658
vn -0.257569 -0.907192 0.332658
vn -0.257569 -0.907192 0.332658
vn -0.257569 -0.907192 0.332658
vn 0.845707 -0.091103 0.525814
vn 0.845707 -0.091103 0.525813
vn 0.845707 -0.091103 0.525814
vn 0.845707 -0.091103 0.525814
vn -0.167720 0.908031 -0.383862
vn -0.167720 0.908031 -0.383862
vn -0.167720 0.908031 -0.383862
vn -0.167720 0.908031 -0.383862
vn -0.845709 -0.091106 0.525810
vn -0.845705 -0.091106 0.525817
vn -0.845705 -0.091106 0.525817
vn -0.845709 -0.091106 0.525810
vn 0.257554 -0.907195 0.332660
vn 0.257554 -0.907195 0.332660
vn 0.257554 -0.907195 0.332659
vn 0.257554 -0.907195 0.332660
vn 0.886854 -0.322104 -0.331267
vn 0.886855 -0.322104 -0.331267
vn 0.886855 -0.322105 -0.331264
vn 0.886855 -0.322105 -0.331264
vn 0.997158 -0.033917 0.067279
vn 0.997158 -0.033917 0.067279
vn 0.431942 -0.183089 -0.883122
vn 0.431942 -0.183089 -0.883122
vn 0.845709 -0.091102 0.525811
vn 0.845709 -0.091102 0.525811
vn -0.353514 0.459333 0.814887
vn -0.353514 0.459333 0.814887
vn -0.886853 -0.322108 -0.331268
vn -0.886853 -0.322108 -0.331268
vn -0.990695 0.134705 0.019455
vn -0.990695 0.134705 0.019455
vn -0.410001 -0.384117 -0.827257
vn -0.410001 -0.384117 -0.827257
vn 0.758415 0.086567 -0.645997
vn 0.758415 0.086567 -0.645997
vn -0.845705 -0.091106 0.525817
vn -0.845705 -0.091106 0.525817
vn 0.343430 0.460144 0.818733
vn 0.343430 0.460144 0.818733
vn 0.886854 -0.322104 -0.331267
vn 0.886854 -0.322104 -0.331267
s 1
g Mask2
usemtl lambert2SG
f 1/2/1 41/70/2 42/71/3 4/6/4
f 3/4/5 33/61/6 34/62/7 6/8/8
f 8/9/9 46/75/10 47/76/11 17/12/12
f 7/13/13 38/66/14 39/67/15 18/16/16
s 3
usemtl Human2_lambert3SG
f 61/91/17 62/92/18 63/93/19 64/94/20
s 1
usemtl lambert2SG
f 14/21/21 44/73/22 45/74/23 11/24/24
f 11/24/24 45/74/23 46/75/10 8/9/9
s 3
usemtl Human2_lambert3SG
f 64/94/20 63/93/19 65/95/25 66/96/26
s 1
usemtl lambert2SG
f 35/63/27 36/64/28 13/17/29 29/55/30
f 43/72/31 44/73/22 14/21/21 30/57/32
s 6
f 17/25/33 47/77/34 48/78/35 20/28/36
s off
f 74/103/37 73/104/38 75/105/39 76/106/40
s 7
f 16/33/41 9/34/42 22/35/43 19/36/44
s 8
f 7/37/45 18/38/46 21/39/47 23/40/48
s 7
f 9/41/42 10/23/49 27/42/50 22/43/43
s 8
f 12/18/51 7/44/45 23/45/48 25/46/52
s 9
f 31/59/53 32/60/54 26/48/55 15/22/56
s 10
f 24/47/57 28/53/58 29/54/59 13/17/60
f 29/54/59 28/53/58 3/50/61 6/49/62
s 1
f 34/62/7 35/63/27 29/55/30 6/8/8
f 42/71/3 43/72/31 30/57/32 4/6/4
s 9
f 2/52/63 32/60/54 31/59/53 5/51/64
s off
f 15/22/65 26/48/66 27/42/67 10/23/68
f 24/47/69 13/17/70 12/18/71 25/46/72
s 1
f 34/62/7 33/61/6 1/3/1 4/7/4
f 30/56/32 35/63/27 34/62/7 4/7/4
f 14/19/21 36/64/28 35/63/27 30/56/32
f 37/65/73 36/64/28 14/19/21 11/20/24
f 38/66/14 37/65/73 11/20/24 8/14/9
f 39/67/15 38/66/14 8/14/9 17/15/12
s 6
f 40/69/74 39/68/75 17/30/33 20/31/36
s 1
f 42/71/3 41/70/2 2/1/76 5/5/77
f 31/58/78 43/72/31 42/71/3 5/5/77
f 15/22/79 44/73/22 43/72/31 31/58/78
s 11
usemtl Human2_lambert3SG
f 68/97/80 67/98/81 69/99/82 70/100/83
f 71/101/84 68/97/80 70/100/83 72/102/85
s 1
usemtl lambert2SG
f 47/76/11 46/75/10 9/10/86 16/11/87
s off
f 78/107/88 77/108/89 79/109/90 80/110/91
s 1
f 13/17/29 36/64/28 50/80/92 49/79/93
f 36/64/28 37/65/73 51/81/94 50/80/92
f 12/18/95 13/17/29 49/79/93 52/82/96
f 37/65/73 38/66/14 53/83/97 51/81/94
f 38/66/14 7/13/98 54/84/99 53/83/97
f 7/13/98 12/18/95 52/82/96 54/84/99
f 45/74/23 44/73/22 55/86/100 56/85/101
f 44/73/22 15/22/79 57/87/102 55/86/100
f 15/22/79 10/23/103 58/88/104 57/87/102
f 46/75/10 45/74/23 56/85/101 59/89/105
f 10/23/103 9/10/106 60/90/107 58/88/104
f 9/10/106 46/75/10 59/89/105 60/90/107
s off
f 49/79/108 50/80/109 62/92/110 61/91/111
s 12
f 50/80/112 51/81/113 63/93/114 62/92/115
s 13
f 52/82/116 49/79/117 61/91/118 64/94/119
s 12
f 51/81/113 53/83/120 65/95/121 63/93/114
s off
f 53/83/122 54/84/123 66/96/124 65/95/125
s 13
f 54/84/126 52/82/116 64/94/119 66/96/127
s 14
f 56/85/128 55/86/129 67/98/130 68/97/131
s off
f 55/86/132 57/87/133 69/99/134 67/98/135
s 15
f 57/87/136 58/88/137 70/100/138 69/99/139
s 14
f 59/89/140 56/85/128 68/97/131 71/101/141
s 15
f 58/88/137 60/90/142 72/102/143 70/100/138
s off
f 60/90/144 59/89/145 71/101/146 72/102/147
s 16
f 102/132/148 103/133/149 91/121/150 92/122/151
s 17
f 97/127/152 98/128/153 75/105/154 73/104/155
s 18
f 98/128/156 99/129/157 76/106/158 75/105/159
s 8
f 99/129/160 100/130/161 74/103/162 76/106/163
s 19
f 48/78/164 47/77/165 105/135/166 106/136/167
s 20
f 94/123/168 93/124/169 110/140/170 111/141/171
s 7
f 16/26/41 19/27/44 107/137/172 108/138/173
s 21
f 19/27/174 48/78/175 106/136/176 107/137/177
s 1
f 18/29/16 39/68/15 81/112/178 82/111/179
f 104/134/180 97/127/181 73/104/182 83/113/183
f 73/104/182 74/103/184 84/114/185 83/113/183
f 74/103/184 100/130/186 101/131/187 84/114/185
f 47/77/11 16/26/87 85/116/188 86/115/189
f 16/26/87 108/138/190 109/139/191 85/116/188
f 79/109/192 77/108/193 88/118/194 87/117/195
f 112/142/196 105/135/197 47/77/11 86/115/189
s off
f 82/111/198 81/112/199 89/120/200 90/119/201
s 23
f 103/133/202 104/134/203 83/113/204 91/121/205
s off
f 83/113/206 84/114/207 92/122/208 91/121/209
s 24
f 84/114/210 101/131/211 102/132/212 92/122/213
s off
f 86/115/214 85/116/215 93/124/216 94/123/217
s 25
f 85/116/218 109/139/219 110/140/220 93/124/221
s off
f 87/117/222 88/118/223 96/126/224 95/125/225
s 26
f 111/141/226 112/142/227 86/115/228 94/123/229
s 17
f 39/68/230 40/69/231 98/128/153 97/127/152
s 18
f 40/69/232 21/32/233 99/129/157 98/128/156
s 8
f 21/32/47 18/29/46 100/130/161 99/129/160
s 1
f 101/131/187 100/130/186 18/29/16 82/111/179
s 24
f 102/132/212 101/131/211 82/111/234 90/119/235
s 16
f 90/119/236 89/120/237 103/133/149 102/132/148
s 23
f 81/112/238 104/134/203 103/133/202 89/120/239
s 1
f 39/68/15 97/127/181 104/134/180 81/112/178
s 19
f 106/136/167 105/135/166 77/108/240 78/107/241
s 21
f 107/137/177 106/136/176 78/107/242 80/110/243
s 7
f 108/138/173 107/137/172 80/110/244 79/109/245
s 1
f 109/139/191 108/138/190 79/109/192 87/117/195
s 25
f 110/140/220 109/139/219 87/117/246 95/125/247
s 20
f 111/141/171 110/140/170 95/125/248 96/126/249
s 26
f 88/118/250 112/142/227 111/141/226 96/126/251
s 1
f 77/108/193 105/135/197 112/142/196 88/118/194
